ISO-10303-21;
HEADER;
FILE_DESCRIPTION(('Open CASCADE Model'),'2;1');
FILE_NAME('Open CASCADE Shape Model','2026-10-09T16:41:03',('Author'),(
    'Open CASCADE'),'Open CASCADE STEP processor 8.0','build123d',
  'Unknown');
FILE_SCHEMA(('AUTOMOTIVE_DESIGN { 1 0 10303 214 1 1 1 1 }'));
ENDSEC;
DATA;
#1 = APPLICATION_PROTOCOL_DEFINITION('international standard',
  'automotive_design',2000,#2);
#2 = APPLICATION_CONTEXT(
  'core data for automotive mechanical design processes');
#3 = SHAPE_DEFINITION_REPRESENTATION(#4,#10);
#4 = PRODUCT_DEFINITION_SHAPE('','',#5);
#5 = PRODUCT_DEFINITION('design','',#6,#9);
#6 = PRODUCT_DEFINITION_FORMATION('','',#7);
#7 = PRODUCT('COMPOUND','COMPOUND','',(#8));
#8 = PRODUCT_CONTEXT('',#2,'mechanical');
#9 = PRODUCT_DEFINITION_CONTEXT('part definition',#2,'design');
#10 = ADVANCED_BREP_SHAPE_REPRESENTATION('',(#11,#15),#771);
#11 = AXIS2_PLACEMENT_3D('',#12,#13,#14);
#12 = CARTESIAN_POINT('',(0.,0.,0.));
#13 = DIRECTION('',(0.,0.,1.));
#14 = DIRECTION('',(1.,0.,-0.));
#15 = MANIFOLD_SOLID_BREP('',#16);
#16 = CLOSED_SHELL('',(#17,#280,#378,#434,#460,#498,#529,#584,#622,#677,
    #712,#767));
#17 = ADVANCED_FACE('',(#18),#32,.F.);
#18 = FACE_BOUND('',#19,.F.);
#19 = EDGE_LOOP('',(#20,#53,#82,#111,#133,#134));
#20 = ORIENTED_EDGE('',*,*,#21,.F.);
#21 = EDGE_CURVE('',#22,#24,#26,.T.);
#22 = VERTEX_POINT('',#23);
#23 = CARTESIAN_POINT('',(6.,0.,1.));
#24 = VERTEX_POINT('',#25);
#25 = CARTESIAN_POINT('',(6.,0.,0.4));
#26 = SEAM_CURVE('',#27,(#31,#46),.PCURVE_S1.);
#27 = LINE('',#28,#29);
#28 = CARTESIAN_POINT('',(6.,0.,1.));
#29 = VECTOR('',#30,1.);
#30 = DIRECTION('',(0.,0.,-1.));
#31 = PCURVE('',#32,#40);
#32 = SURFACE_OF_LINEAR_EXTRUSION('',#33,#38);
#33 = ELLIPSE('',#34,6.,4.5);
#34 = AXIS2_PLACEMENT_3D('',#35,#36,#37);
#35 = CARTESIAN_POINT('',(0.,0.,0.));
#36 = DIRECTION('',(0.,0.,1.));
#37 = DIRECTION('',(1.,0.,-0.));
#38 = VECTOR('',#39,1.);
#39 = DIRECTION('',(-0.,-0.,-1.));
#40 = DEFINITIONAL_REPRESENTATION('',(#41),#45);
#41 = LINE('',#42,#43);
#42 = CARTESIAN_POINT('',(0.,-1.));
#43 = VECTOR('',#44,1.);
#44 = DIRECTION('',(-0.,1.));
#45 = ( GEOMETRIC_REPRESENTATION_CONTEXT(2) 
PARAMETRIC_REPRESENTATION_CONTEXT() REPRESENTATION_CONTEXT('2D SPACE',''
  ) );
#46 = PCURVE('',#32,#47);
#47 = DEFINITIONAL_REPRESENTATION('',(#48),#52);
#48 = LINE('',#49,#50);
#49 = CARTESIAN_POINT('',(6.28318530718,-1.));
#50 = VECTOR('',#51,1.);
#51 = DIRECTION('',(-0.,1.));
#52 = ( GEOMETRIC_REPRESENTATION_CONTEXT(2) 
PARAMETRIC_REPRESENTATION_CONTEXT() REPRESENTATION_CONTEXT('2D SPACE',''
  ) );
#53 = ORIENTED_EDGE('',*,*,#54,.T.);
#54 = EDGE_CURVE('',#22,#55,#57,.T.);
#55 = VERTEX_POINT('',#56);
#56 = CARTESIAN_POINT('',(-1.496390714992E-08,4.5,1.));
#57 = SURFACE_CURVE('',#58,(#63,#70),.PCURVE_S1.);
#58 = ELLIPSE('',#59,6.,4.5);
#59 = AXIS2_PLACEMENT_3D('',#60,#61,#62);
#60 = CARTESIAN_POINT('',(0.,0.,1.));
#61 = DIRECTION('',(0.,0.,1.));
#62 = DIRECTION('',(1.,0.,-0.));
#63 = PCURVE('',#32,#64);
#64 = DEFINITIONAL_REPRESENTATION('',(#65),#69);
#65 = LINE('',#66,#67);
#66 = CARTESIAN_POINT('',(0.,-1.));
#67 = VECTOR('',#68,1.);
#68 = DIRECTION('',(1.,0.));
#69 = ( GEOMETRIC_REPRESENTATION_CONTEXT(2) 
PARAMETRIC_REPRESENTATION_CONTEXT() REPRESENTATION_CONTEXT('2D SPACE',''
  ) );
#70 = PCURVE('',#71,#76);
#71 = PLANE('',#72);
#72 = AXIS2_PLACEMENT_3D('',#73,#74,#75);
#73 = CARTESIAN_POINT('',(0.22035906508,-1.971901210578E-16,1.));
#74 = DIRECTION('',(0.,0.,1.));
#75 = DIRECTION('',(1.,0.,-0.));
#76 = DEFINITIONAL_REPRESENTATION('',(#77),#81);
#77 = ELLIPSE('',#78,6.,4.5);
#78 = AXIS2_PLACEMENT_2D('',#79,#80);
#79 = CARTESIAN_POINT('',(-0.22035906508,1.971901210578E-16));
#80 = DIRECTION('',(1.,0.));
#81 = ( GEOMETRIC_REPRESENTATION_CONTEXT(2) 
PARAMETRIC_REPRESENTATION_CONTEXT() REPRESENTATION_CONTEXT('2D SPACE',''
  ) );
#82 = ORIENTED_EDGE('',*,*,#83,.T.);
#83 = EDGE_CURVE('',#55,#84,#86,.T.);
#84 = VERTEX_POINT('',#85);
#85 = CARTESIAN_POINT('',(-4.698836277367E-06,-4.499999999826,
    0.999999999973));
#86 = SURFACE_CURVE('',#87,(#92,#99),.PCURVE_S1.);
#87 = ELLIPSE('',#88,6.,4.5);
#88 = AXIS2_PLACEMENT_3D('',#89,#90,#91);
#89 = CARTESIAN_POINT('',(0.,0.,1.));
#90 = DIRECTION('',(0.,0.,1.));
#91 = DIRECTION('',(1.,0.,-0.));
#92 = PCURVE('',#32,#93);
#93 = DEFINITIONAL_REPRESENTATION('',(#94),#98);
#94 = LINE('',#95,#96);
#95 = CARTESIAN_POINT('',(0.,-1.));
#96 = VECTOR('',#97,1.);
#97 = DIRECTION('',(1.,0.));
#98 = ( GEOMETRIC_REPRESENTATION_CONTEXT(2) 
PARAMETRIC_REPRESENTATION_CONTEXT() REPRESENTATION_CONTEXT('2D SPACE',''
  ) );
#99 = PCURVE('',#100,#105);
#100 = PLANE('',#101);
#101 = AXIS2_PLACEMENT_3D('',#102,#103,#104);
#102 = CARTESIAN_POINT('',(0.22035906508,-1.971901210578E-16,1.));
#103 = DIRECTION('',(0.,0.,1.));
#104 = DIRECTION('',(1.,0.,-0.));
#105 = DEFINITIONAL_REPRESENTATION('',(#106),#110);
#106 = ELLIPSE('',#107,6.,4.5);
#107 = AXIS2_PLACEMENT_2D('',#108,#109);
#108 = CARTESIAN_POINT('',(-0.22035906508,1.971901210578E-16));
#109 = DIRECTION('',(1.,0.));
#110 = ( GEOMETRIC_REPRESENTATION_CONTEXT(2) 
PARAMETRIC_REPRESENTATION_CONTEXT() REPRESENTATION_CONTEXT('2D SPACE',''
  ) );
#111 = ORIENTED_EDGE('',*,*,#112,.T.);
#112 = EDGE_CURVE('',#84,#22,#113,.T.);
#113 = SURFACE_CURVE('',#114,(#119,#126),.PCURVE_S1.);
#114 = ELLIPSE('',#115,6.,4.5);
#115 = AXIS2_PLACEMENT_3D('',#116,#117,#118);
#116 = CARTESIAN_POINT('',(0.,0.,1.));
#117 = DIRECTION('',(0.,0.,1.));
#118 = DIRECTION('',(1.,0.,-0.));
#119 = PCURVE('',#32,#120);
#120 = DEFINITIONAL_REPRESENTATION('',(#121),#125);
#121 = LINE('',#122,#123);
#122 = CARTESIAN_POINT('',(0.,-1.));
#123 = VECTOR('',#124,1.);
#124 = DIRECTION('',(1.,0.));
#125 = ( GEOMETRIC_REPRESENTATION_CONTEXT(2) 
PARAMETRIC_REPRESENTATION_CONTEXT() REPRESENTATION_CONTEXT('2D SPACE',''
  ) );
#126 = PCURVE('',#71,#127);
#127 = DEFINITIONAL_REPRESENTATION('',(#128),#132);
#128 = ELLIPSE('',#129,6.,4.5);
#129 = AXIS2_PLACEMENT_2D('',#130,#131);
#130 = CARTESIAN_POINT('',(-0.22035906508,1.971901210578E-16));
#131 = DIRECTION('',(1.,0.));
#132 = ( GEOMETRIC_REPRESENTATION_CONTEXT(2) 
PARAMETRIC_REPRESENTATION_CONTEXT() REPRESENTATION_CONTEXT('2D SPACE',''
  ) );
#133 = ORIENTED_EDGE('',*,*,#21,.T.);
#134 = ORIENTED_EDGE('',*,*,#135,.F.);
#135 = EDGE_CURVE('',#24,#24,#136,.T.);
#136 = SURFACE_CURVE('',#137,(#164,#194),.PCURVE_S1.);
#137 = ( BOUNDED_CURVE() B_SPLINE_CURVE(13,(#138,#139,#140,#141,#142,
    #143,#144,#145,#146,#147,#148,#149,#150,#151,#152,#153,#154,#155,
    #156,#157,#158,#159,#160,#161,#162,#163),.UNSPECIFIED.,.T.,.F.) 
B_SPLINE_CURVE_WITH_KNOTS((14,12,14),(6.557716792539E-16,16.579194255975
,33.15838851195),.UNSPECIFIED.) CURVE() GEOMETRIC_REPRESENTATION_ITEM() 
RATIONAL_B_SPLINE_CURVE((1.,1.,0.999999999999,1.000000000002,
    0.999999999995,1.000000000007,0.999999999991,1.000000000009,
    0.999999999993,1.000000000005,0.999999999998,1.000000000001,1.,1.,
    0.999999999998,1.000000000006,0.999999999989,1.000000000017,
    0.99999999998,1.000000000019,0.999999999985,1.000000000009,
0.999999999996,1.000000000002,1.,1.)) REPRESENTATION_ITEM('') );
#138 = CARTESIAN_POINT('',(6.,0.,0.4));
#139 = CARTESIAN_POINT('',(5.999999999999,1.071743298089,0.4));
#140 = CARTESIAN_POINT('',(5.631303437097,2.15568509406,0.4));
#141 = CARTESIAN_POINT('',(4.880168896423,3.16851424006,0.4));
#142 = CARTESIAN_POINT('',(3.773894667421,4.021604687059,0.4));
#143 = CARTESIAN_POINT('',(2.383345934866,4.635430885761,0.4));
#144 = CARTESIAN_POINT('',(0.814683049348,4.954005071812,0.399999999999)
  );
#145 = CARTESIAN_POINT('',(-0.811768540944,4.952877922815,0.400000000001
    ));
#146 = CARTESIAN_POINT('',(-2.3743328013,4.633292416382,0.399999999999)
  );
#147 = CARTESIAN_POINT('',(-3.756443447435,4.024660988883,0.4));
#148 = CARTESIAN_POINT('',(-4.861203191923,3.181112020374,0.4));
#149 = CARTESIAN_POINT('',(-5.620399345934,2.174948876526,0.4));
#150 = CARTESIAN_POINT('',(-6.000000000001,1.087474380089,0.4));
#151 = CARTESIAN_POINT('',(-5.999999999998,-1.08747438009,0.4));
#152 = CARTESIAN_POINT('',(-5.620399345946,-2.174948876521,0.4));
#153 = CARTESIAN_POINT('',(-4.861203191898,-3.181112020384,0.4));
#154 = CARTESIAN_POINT('',(-3.756443447468,-4.024660988873,0.4));
#155 = CARTESIAN_POINT('',(-2.374332801284,-4.633292416387,
    0.400000000001));
#156 = CARTESIAN_POINT('',(-0.811768540919,-4.952877922813,
    0.399999999999));
#157 = CARTESIAN_POINT('',(0.814683049281,-4.954005071819,0.400000000001
    ));
#158 = CARTESIAN_POINT('',(2.383345934951,-4.635430885745,0.399999999999
    ));
#159 = CARTESIAN_POINT('',(3.773894667351,-4.02160468708,0.4));
#160 = CARTESIAN_POINT('',(4.880168896464,-3.168514240043,0.4));
#161 = CARTESIAN_POINT('',(5.631303437081,-2.155685094069,0.4));
#162 = CARTESIAN_POINT('',(6.000000000002,-1.071743298086,0.4));
#163 = CARTESIAN_POINT('',(6.,-1.102182119233E-15,0.4));
#164 = PCURVE('',#32,#165);
#165 = DEFINITIONAL_REPRESENTATION('',(#166),#193);
#166 = B_SPLINE_CURVE_WITH_KNOTS('',13,(#167,#168,#169,#170,#171,#172,
    #173,#174,#175,#176,#177,#178,#179,#180,#181,#182,#183,#184,#185,
    #186,#187,#188,#189,#190,#191,#192),.UNSPECIFIED.,.F.,.F.,(14,12,14)
  ,(6.557716792539E-16,16.579194255975,33.15838851195),.UNSPECIFIED.);
#167 = CARTESIAN_POINT('',(0.,-0.4));
#168 = CARTESIAN_POINT('',(0.238165177353,-0.4));
#169 = CARTESIAN_POINT('',(0.479041137249,-0.4));
#170 = CARTESIAN_POINT('',(0.721410265921,-0.400000000001));
#171 = CARTESIAN_POINT('',(0.964292274608,-0.399999999998));
#172 = CARTESIAN_POINT('',(1.207055109401,-0.400000000003));
#173 = CARTESIAN_POINT('',(1.449442129939,-0.399999999996));
#174 = CARTESIAN_POINT('',(1.691470260702,-0.400000000004));
#175 = CARTESIAN_POINT('',(1.933261353553,-0.399999999997));
#176 = CARTESIAN_POINT('',(2.174948852788,-0.400000000002));
#177 = CARTESIAN_POINT('',(2.416609710828,-0.399999999999));
#178 = CARTESIAN_POINT('',(2.658270709791,-0.4));
#179 = CARTESIAN_POINT('',(2.899931680236,-0.4));
#180 = CARTESIAN_POINT('',(3.383253626945,-0.4));
#181 = CARTESIAN_POINT('',(3.624914597382,-0.399999999999));
#182 = CARTESIAN_POINT('',(3.866575596371,-0.400000000003));
#183 = CARTESIAN_POINT('',(4.108236454353,-0.399999999995));
#184 = CARTESIAN_POINT('',(4.349923953686,-0.400000000008));
#185 = CARTESIAN_POINT('',(4.591715046405,-0.399999999991));
#186 = CARTESIAN_POINT('',(4.833743177311,-0.400000000009));
#187 = CARTESIAN_POINT('',(5.076130197723,-0.399999999993));
#188 = CARTESIAN_POINT('',(5.318893032606,-0.400000000005));
#189 = CARTESIAN_POINT('',(5.561775041241,-0.399999999998));
#190 = CARTESIAN_POINT('',(5.804144169937,-0.400000000001));
#191 = CARTESIAN_POINT('',(6.045020129825,-0.4));
#192 = CARTESIAN_POINT('',(6.28318530718,-0.4));
#193 = ( GEOMETRIC_REPRESENTATION_CONTEXT(2) 
PARAMETRIC_REPRESENTATION_CONTEXT() REPRESENTATION_CONTEXT('2D SPACE',''
  ) );
#194 = PCURVE('',#195,#274);
#195 = ( BOUNDED_SURFACE() B_SPLINE_SURFACE(2,13,(
    (#196,#197,#198,#199,#200,#201,#202,#203,#204,#205,#206,#207,#208
      ,#209,#210,#211,#212,#213,#214,#215,#216,#217,#218,#219,#220,#221)
    ,(#222,#223,#224,#225,#226,#227,#228,#229,#230,#231,#232,#233,#234
      ,#235,#236,#237,#238,#239,#240,#241,#242,#243,#244,#245,#246,#247)
    ,(#248,#249,#250,#251,#252,#253,#254,#255,#256,#257,#258,#259,#260
      ,#261,#262,#263,#264,#265,#266,#267,#268,#269,#270,#271,#272,#273
)),.UNSPECIFIED.,.F.,.T.,.F.) B_SPLINE_SURFACE_WITH_KNOTS((3,3),(14,12,
    14),(0.,33.15838851195),(6.557716792539E-16,16.579194255975,
33.15838851195),.UNSPECIFIED.) GEOMETRIC_REPRESENTATION_ITEM() 
RATIONAL_B_SPLINE_SURFACE((
    (1.,1.,0.999999999999,1.000000000002,0.999999999995,1.000000000007
      ,0.999999999991,1.000000000009,0.999999999993,1.000000000005
      ,0.999999999998,1.000000000001,1.,1.,0.999999999998,1.000000000006
      ,0.999999999989,1.000000000017,0.99999999998,1.000000000019
      ,0.999999999985,1.000000000009,0.999999999996,1.000000000002,1.,1.
      )
    ,(0.707106781187,0.707106781187,0.707106781186,0.707106781188
      ,0.707106781184,0.707106781191,0.707106781181,0.707106781193
      ,0.707106781182,0.70710678119,0.707106781185,0.707106781187
      ,0.707106781186,0.707106781187,0.707106781185,0.707106781191
      ,0.707106781178,0.707106781199,0.707106781171,0.707106781201
      ,0.707106781175,0.707106781194,0.707106781183,0.707106781188
      ,0.707106781186,0.707106781187)
    ,(1.,1.,0.999999999999,1.000000000002,0.999999999995,1.000000000007
      ,0.999999999991,1.000000000009,0.999999999993,1.000000000005
      ,0.999999999998,1.000000000001,1.,1.,0.999999999998,1.000000000006
      ,0.999999999989,1.000000000017,0.99999999998,1.000000000019
      ,0.999999999985,1.000000000009,0.999999999996,1.000000000002,1.,1.
))) REPRESENTATION_ITEM('') SURFACE() );
#196 = CARTESIAN_POINT('',(6.,0.,0.4));
#197 = CARTESIAN_POINT('',(5.999999999999,1.071743298089,0.4));
#198 = CARTESIAN_POINT('',(5.631303437097,2.15568509406,0.4));
#199 = CARTESIAN_POINT('',(4.880168896423,3.16851424006,0.4));
#200 = CARTESIAN_POINT('',(3.773894667421,4.021604687059,0.4));
#201 = CARTESIAN_POINT('',(2.383345934866,4.635430885761,0.4));
#202 = CARTESIAN_POINT('',(0.814683049348,4.954005071812,0.399999999999)
  );
#203 = CARTESIAN_POINT('',(-0.811768540944,4.952877922815,0.400000000001
    ));
#204 = CARTESIAN_POINT('',(-2.3743328013,4.633292416382,0.399999999999)
  );
#205 = CARTESIAN_POINT('',(-3.756443447435,4.024660988883,0.4));
#206 = CARTESIAN_POINT('',(-4.861203191923,3.181112020374,0.4));
#207 = CARTESIAN_POINT('',(-5.620399345934,2.174948876526,0.4));
#208 = CARTESIAN_POINT('',(-6.000000000001,1.087474380089,0.4));
#209 = CARTESIAN_POINT('',(-5.999999999998,-1.08747438009,0.4));
#210 = CARTESIAN_POINT('',(-5.620399345946,-2.174948876521,0.4));
#211 = CARTESIAN_POINT('',(-4.861203191898,-3.181112020384,0.4));
#212 = CARTESIAN_POINT('',(-3.756443447468,-4.024660988873,0.4));
#213 = CARTESIAN_POINT('',(-2.374332801284,-4.633292416387,
    0.400000000001));
#214 = CARTESIAN_POINT('',(-0.811768540919,-4.952877922813,
    0.399999999999));
#215 = CARTESIAN_POINT('',(0.814683049281,-4.954005071819,0.400000000001
    ));
#216 = CARTESIAN_POINT('',(2.383345934951,-4.635430885745,0.399999999999
    ));
#217 = CARTESIAN_POINT('',(3.773894667351,-4.02160468708,0.4));
#218 = CARTESIAN_POINT('',(4.880168896464,-3.168514240043,0.4));
#219 = CARTESIAN_POINT('',(5.631303437081,-2.155685094069,0.4));
#220 = CARTESIAN_POINT('',(6.000000000002,-1.071743298086,0.4));
#221 = CARTESIAN_POINT('',(6.,-1.102182119233E-15,0.4));
#222 = CARTESIAN_POINT('',(6.,-3.677613769071E-16,1.110223024625E-16));
#223 = CARTESIAN_POINT('',(5.999999999999,1.071743298088,
    -9.298117831236E-15));
#224 = CARTESIAN_POINT('',(5.631303437097,2.155685094061,
    4.538036613155E-14));
#225 = CARTESIAN_POINT('',(4.880168896424,3.168514240058,
    -1.302569163641E-13));
#226 = CARTESIAN_POINT('',(3.77389466742,4.021604687063,
    2.781108676686E-13));
#227 = CARTESIAN_POINT('',(2.383345934867,4.635430885755,
    -4.666822484012E-13));
#228 = CARTESIAN_POINT('',(0.814683049349,4.954005071819,
    6.323552792509E-13));
#229 = CARTESIAN_POINT('',(-0.811768540946,4.952877922809,
    -6.927791673661E-13));
#230 = CARTESIAN_POINT('',(-2.374332801297,4.633292416387,
    6.075140390749E-13));
#231 = CARTESIAN_POINT('',(-3.756443447437,4.02466098888,
    -4.166667011418E-13));
#232 = CARTESIAN_POINT('',(-4.861203191922,3.181112020375,
    2.160494005921E-13));
#233 = CARTESIAN_POINT('',(-5.620399345935,2.174948876526,
    -7.757683384568E-14));
#234 = CARTESIAN_POINT('',(-6.000000000001,1.087474380089,
    1.423861029082E-14));
#235 = CARTESIAN_POINT('',(-5.999999999998,-1.08747438009,
    -9.298117831236E-15));
#236 = CARTESIAN_POINT('',(-5.620399345948,-2.174948876522,
    3.450018049023E-14));
#237 = CARTESIAN_POINT('',(-4.861203191894,-3.18111202038,
    -1.036948305E-13));
#238 = CARTESIAN_POINT('',(-3.756443447474,-4.02466098888,
    2.506328478091E-13));
#239 = CARTESIAN_POINT('',(-2.374332801277,-4.633292416376,
    -4.786171459159E-13));
#240 = CARTESIAN_POINT('',(-0.811768540923,-4.952877922827,
    7.215616992795E-13));
#241 = CARTESIAN_POINT('',(0.814683049281,-4.954005071806,
    -8.551215291419E-13));
#242 = CARTESIAN_POINT('',(2.383345934952,-4.635430885755,
    7.940592627875E-13));
#243 = CARTESIAN_POINT('',(3.773894667349,-4.021604687074,
    -5.710432127159E-13));
#244 = CARTESIAN_POINT('',(4.880168896465,-3.168514240045,
    3.108069357438E-13));
#245 = CARTESIAN_POINT('',(5.63130343708,-2.155685094069,
    -1.204869537474E-13));
#246 = CARTESIAN_POINT('',(6.000000000003,-1.071743298086,
    2.775557561563E-14));
#247 = CARTESIAN_POINT('',(6.,-1.623701173514E-15,1.110223024625E-16));
#248 = CARTESIAN_POINT('',(5.6,0.,0.));
#249 = CARTESIAN_POINT('',(5.599999999999,0.944721870168,
    -8.187894806611E-15));
#250 = CARTESIAN_POINT('',(5.27508645476,1.900615586505,
    3.788636071533E-14));
#251 = CARTESIAN_POINT('',(4.611848079996,2.8111087752,
    -1.051936315832E-13));
#252 = CARTESIAN_POINT('',(3.618051524926,3.646901235156,
    2.128575093963E-13));
#253 = CARTESIAN_POINT('',(2.242164256775,4.224133113116,
    -3.354261313149E-13));
#254 = CARTESIAN_POINT('',(0.822813359974,4.534457938183,
    4.234668171677E-13));
#255 = CARTESIAN_POINT('',(-0.819620615852,4.538712533998,
    -4.344302695358E-13));
#256 = CARTESIAN_POINT('',(-2.234871154595,4.217904686742,
    3.613220833643E-13));
#257 = CARTESIAN_POINT('',(-3.599471780194,3.652034591715,
    -2.401967513777E-13));
#258 = CARTESIAN_POINT('',(-4.595473053449,2.823169999801,
    1.23262511309E-13));
#259 = CARTESIAN_POINT('',(-5.265436270516,1.91759223649,
    -4.521383267786E-14));
#260 = CARTESIAN_POINT('',(-5.600000000001,0.958588527634,
    9.020562075079E-15));
#261 = CARTESIAN_POINT('',(-5.599999999998,-0.958588527634,
    -7.077671781985E-15));
#262 = CARTESIAN_POINT('',(-5.265436270529,-1.917592236485,
    2.600697435184E-14));
#263 = CARTESIAN_POINT('',(-4.595473053421,-2.823169999812,
    -6.372680161348E-14));
#264 = CARTESIAN_POINT('',(-3.599471780233,-3.652034591703,
    1.185163078787E-13));
#265 = CARTESIAN_POINT('',(-2.234871154569,-4.21790468675,
    -1.765254609154E-13));
#266 = CARTESIAN_POINT('',(-0.819620615841,-4.538712533995,
    2.165767565288E-13));
#267 = CARTESIAN_POINT('',(0.82281335992,-4.534457938189,
    -2.223221606812E-13));
#268 = CARTESIAN_POINT('',(2.242164256845,-4.224133113102,
    1.896538481816E-13));
#269 = CARTESIAN_POINT('',(3.618051524865,-3.646901235174,
    -1.307287611496E-13));
#270 = CARTESIAN_POINT('',(4.611848080031,-2.811108775185,
    6.930567231223E-14));
#271 = CARTESIAN_POINT('',(5.275086454746,-1.900615586513,
    -2.603472992746E-14));
#272 = CARTESIAN_POINT('',(5.600000000002,-0.944721870165,
    5.773159728051E-15));
#273 = CARTESIAN_POINT('',(5.6,0.,0.));
#274 = DEFINITIONAL_REPRESENTATION('',(#275),#279);
#275 = LINE('',#276,#277);
#276 = CARTESIAN_POINT('',(0.,0.));
#277 = VECTOR('',#278,1.);
#278 = DIRECTION('',(0.,1.));
#279 = ( GEOMETRIC_REPRESENTATION_CONTEXT(2) 
PARAMETRIC_REPRESENTATION_CONTEXT() REPRESENTATION_CONTEXT('2D SPACE',''
  ) );
#280 = ADVANCED_FACE('',(#281),#195,.T.);
#281 = FACE_BOUND('',#282,.T.);
#282 = EDGE_LOOP('',(#283,#304,#376,#377));
#283 = ORIENTED_EDGE('',*,*,#284,.T.);
#284 = EDGE_CURVE('',#24,#285,#287,.T.);
#285 = VERTEX_POINT('',#286);
#286 = CARTESIAN_POINT('',(5.6,0.,0.));
#287 = SEAM_CURVE('',#288,(#292,#298),.PCURVE_S1.);
#288 = ( BOUNDED_CURVE() B_SPLINE_CURVE(2,(#289,#290,#291),
.UNSPECIFIED.,.F.,.F.) B_SPLINE_CURVE_WITH_KNOTS((3,3),(0.,
33.15838851195),.PIECEWISE_BEZIER_KNOTS.) CURVE() 
GEOMETRIC_REPRESENTATION_ITEM() RATIONAL_B_SPLINE_CURVE((1.,
0.707106781187,1.)) REPRESENTATION_ITEM('') );
#289 = CARTESIAN_POINT('',(6.,0.,0.4));
#290 = CARTESIAN_POINT('',(6.,-3.677613769071E-16,1.110223024625E-16));
#291 = CARTESIAN_POINT('',(5.6,0.,0.));
#292 = PCURVE('',#195,#293);
#293 = DEFINITIONAL_REPRESENTATION('',(#294),#297);
#294 = B_SPLINE_CURVE_WITH_KNOTS('',1,(#295,#296),.UNSPECIFIED.,.F.,.F.,
  (2,2),(0.,33.15838851195),.PIECEWISE_BEZIER_KNOTS.);
#295 = CARTESIAN_POINT('',(0.,6.557716792539E-16));
#296 = CARTESIAN_POINT('',(33.15838851195,6.557716792539E-16));
#297 = ( GEOMETRIC_REPRESENTATION_CONTEXT(2) 
PARAMETRIC_REPRESENTATION_CONTEXT() REPRESENTATION_CONTEXT('2D SPACE',''
  ) );
#298 = PCURVE('',#195,#299);
#299 = DEFINITIONAL_REPRESENTATION('',(#300),#303);
#300 = B_SPLINE_CURVE_WITH_KNOTS('',1,(#301,#302),.UNSPECIFIED.,.F.,.F.,
  (2,2),(0.,33.15838851195),.PIECEWISE_BEZIER_KNOTS.);
#301 = CARTESIAN_POINT('',(0.,33.15838851195));
#302 = CARTESIAN_POINT('',(33.15838851195,33.15838851195));
#303 = ( GEOMETRIC_REPRESENTATION_CONTEXT(2) 
PARAMETRIC_REPRESENTATION_CONTEXT() REPRESENTATION_CONTEXT('2D SPACE',''
  ) );
#304 = ORIENTED_EDGE('',*,*,#305,.T.);
#305 = EDGE_CURVE('',#285,#285,#306,.T.);
#306 = SURFACE_CURVE('',#307,(#334,#341),.PCURVE_S1.);
#307 = ( BOUNDED_CURVE() B_SPLINE_CURVE(13,(#308,#309,#310,#311,#312,
    #313,#314,#315,#316,#317,#318,#319,#320,#321,#322,#323,#324,#325,
    #326,#327,#328,#329,#330,#331,#332,#333),.UNSPECIFIED.,.T.,.F.) 
B_SPLINE_CURVE_WITH_KNOTS((14,12,14),(6.557716792539E-16,16.579194255975
,33.15838851195),.UNSPECIFIED.) CURVE() GEOMETRIC_REPRESENTATION_ITEM() 
RATIONAL_B_SPLINE_CURVE((1.,1.,0.999999999999,1.000000000002,
    0.999999999995,1.000000000007,0.999999999991,1.000000000009,
    0.999999999993,1.000000000005,0.999999999998,1.000000000001,1.,1.,
    0.999999999998,1.000000000006,0.999999999989,1.000000000017,
    0.99999999998,1.000000000019,0.999999999985,1.000000000009,
0.999999999996,1.000000000002,1.,1.)) REPRESENTATION_ITEM('') );
#308 = CARTESIAN_POINT('',(5.6,0.,0.));
#309 = CARTESIAN_POINT('',(5.599999999999,0.944721870168,
    -8.187894806611E-15));
#310 = CARTESIAN_POINT('',(5.27508645476,1.900615586505,
    3.788636071533E-14));
#311 = CARTESIAN_POINT('',(4.611848079996,2.8111087752,
    -1.051936315832E-13));
#312 = CARTESIAN_POINT('',(3.618051524926,3.646901235156,
    2.128575093963E-13));
#313 = CARTESIAN_POINT('',(2.242164256775,4.224133113116,
    -3.354261313149E-13));
#314 = CARTESIAN_POINT('',(0.822813359974,4.534457938183,
    4.234668171677E-13));
#315 = CARTESIAN_POINT('',(-0.819620615852,4.538712533998,
    -4.344302695358E-13));
#316 = CARTESIAN_POINT('',(-2.234871154595,4.217904686742,
    3.613220833643E-13));
#317 = CARTESIAN_POINT('',(-3.599471780194,3.652034591715,
    -2.401967513777E-13));
#318 = CARTESIAN_POINT('',(-4.595473053449,2.823169999801,
    1.23262511309E-13));
#319 = CARTESIAN_POINT('',(-5.265436270516,1.91759223649,
    -4.521383267786E-14));
#320 = CARTESIAN_POINT('',(-5.600000000001,0.958588527634,
    9.020562075079E-15));
#321 = CARTESIAN_POINT('',(-5.599999999998,-0.958588527634,
    -7.077671781985E-15));
#322 = CARTESIAN_POINT('',(-5.265436270529,-1.917592236485,
    2.600697435184E-14));
#323 = CARTESIAN_POINT('',(-4.595473053421,-2.823169999812,
    -6.372680161348E-14));
#324 = CARTESIAN_POINT('',(-3.599471780233,-3.652034591703,
    1.185163078787E-13));
#325 = CARTESIAN_POINT('',(-2.234871154569,-4.21790468675,
    -1.765254609154E-13));
#326 = CARTESIAN_POINT('',(-0.819620615841,-4.538712533995,
    2.165767565288E-13));
#327 = CARTESIAN_POINT('',(0.82281335992,-4.534457938189,
    -2.223221606812E-13));
#328 = CARTESIAN_POINT('',(2.242164256845,-4.224133113102,
    1.896538481816E-13));
#329 = CARTESIAN_POINT('',(3.618051524865,-3.646901235174,
    -1.307287611496E-13));
#330 = CARTESIAN_POINT('',(4.611848080031,-2.811108775185,
    6.930567231223E-14));
#331 = CARTESIAN_POINT('',(5.275086454746,-1.900615586513,
    -2.603472992746E-14));
#332 = CARTESIAN_POINT('',(5.600000000002,-0.944721870165,
    5.773159728051E-15));
#333 = CARTESIAN_POINT('',(5.6,0.,0.));
#334 = PCURVE('',#195,#335);
#335 = DEFINITIONAL_REPRESENTATION('',(#336),#340);
#336 = LINE('',#337,#338);
#337 = CARTESIAN_POINT('',(33.15838851195,0.));
#338 = VECTOR('',#339,1.);
#339 = DIRECTION('',(0.,1.));
#340 = ( GEOMETRIC_REPRESENTATION_CONTEXT(2) 
PARAMETRIC_REPRESENTATION_CONTEXT() REPRESENTATION_CONTEXT('2D SPACE',''
  ) );
#341 = PCURVE('',#342,#347);
#342 = PLANE('',#343);
#343 = AXIS2_PLACEMENT_3D('',#344,#345,#346);
#344 = CARTESIAN_POINT('',(0.222301844278,3.647560522583E-16,0.));
#345 = DIRECTION('',(0.,0.,1.));
#346 = DIRECTION('',(1.,0.,-0.));
#347 = DEFINITIONAL_REPRESENTATION('',(#348),#375);
#348 = ( BOUNDED_CURVE() B_SPLINE_CURVE(13,(#349,#350,#351,#352,#353,
    #354,#355,#356,#357,#358,#359,#360,#361,#362,#363,#364,#365,#366,
    #367,#368,#369,#370,#371,#372,#373,#374),.UNSPECIFIED.,.T.,.F.) 
B_SPLINE_CURVE_WITH_KNOTS((14,12,14),(6.557716792539E-16,16.579194255975
,33.15838851195),.UNSPECIFIED.) CURVE() GEOMETRIC_REPRESENTATION_ITEM() 
RATIONAL_B_SPLINE_CURVE((1.,1.,0.999999999999,1.000000000002,
    0.999999999995,1.000000000007,0.999999999991,1.000000000009,
    0.999999999993,1.000000000005,0.999999999998,1.000000000001,1.,1.,
    0.999999999998,1.000000000006,0.999999999989,1.000000000017,
    0.99999999998,1.000000000019,0.999999999985,1.000000000009,
0.999999999996,1.000000000002,1.,1.)) REPRESENTATION_ITEM('') );
#349 = CARTESIAN_POINT('',(5.377698155722,-3.647560522583E-16));
#350 = CARTESIAN_POINT('',(5.377698155721,0.944721870168));
#351 = CARTESIAN_POINT('',(5.052784610482,1.900615586505));
#352 = CARTESIAN_POINT('',(4.389546235718,2.8111087752));
#353 = CARTESIAN_POINT('',(3.395749680649,3.646901235156));
#354 = CARTESIAN_POINT('',(2.019862412497,4.224133113116));
#355 = CARTESIAN_POINT('',(0.600511515696,4.534457938183));
#356 = CARTESIAN_POINT('',(-1.04192246013,4.538712533998));
#357 = CARTESIAN_POINT('',(-2.457172998873,4.217904686742));
#358 = CARTESIAN_POINT('',(-3.821773624472,3.652034591715));
#359 = CARTESIAN_POINT('',(-4.817774897727,2.823169999801));
#360 = CARTESIAN_POINT('',(-5.487738114794,1.91759223649));
#361 = CARTESIAN_POINT('',(-5.822301844279,0.958588527634));
#362 = CARTESIAN_POINT('',(-5.822301844276,-0.958588527634));
#363 = CARTESIAN_POINT('',(-5.487738114807,-1.917592236485));
#364 = CARTESIAN_POINT('',(-4.817774897699,-2.823169999812));
#365 = CARTESIAN_POINT('',(-3.821773624511,-3.652034591703));
#366 = CARTESIAN_POINT('',(-2.457172998847,-4.21790468675));
#367 = CARTESIAN_POINT('',(-1.041922460119,-4.538712533995));
#368 = CARTESIAN_POINT('',(0.600511515642,-4.534457938189));
#369 = CARTESIAN_POINT('',(2.019862412567,-4.224133113102));
#370 = CARTESIAN_POINT('',(3.395749680587,-3.646901235174));
#371 = CARTESIAN_POINT('',(4.389546235754,-2.811108775185));
#372 = CARTESIAN_POINT('',(5.052784610468,-1.900615586513));
#373 = CARTESIAN_POINT('',(5.377698155724,-0.944721870165));
#374 = CARTESIAN_POINT('',(5.377698155722,-3.647560522583E-16));
#375 = ( GEOMETRIC_REPRESENTATION_CONTEXT(2) 
PARAMETRIC_REPRESENTATION_CONTEXT() REPRESENTATION_CONTEXT('2D SPACE',''
  ) );
#376 = ORIENTED_EDGE('',*,*,#284,.F.);
#377 = ORIENTED_EDGE('',*,*,#135,.F.);
#378 = ADVANCED_FACE('',(#379),#71,.T.);
#379 = FACE_BOUND('',#380,.T.);
#380 = EDGE_LOOP('',(#381,#382,#383,#412));
#381 = ORIENTED_EDGE('',*,*,#112,.T.);
#382 = ORIENTED_EDGE('',*,*,#54,.T.);
#383 = ORIENTED_EDGE('',*,*,#384,.F.);
#384 = EDGE_CURVE('',#385,#55,#387,.T.);
#385 = VERTEX_POINT('',#386);
#386 = CARTESIAN_POINT('',(4.5,-1.102182119233E-15,1.));
#387 = SURFACE_CURVE('',#388,(#393,#400),.PCURVE_S1.);
#388 = CIRCLE('',#389,4.5);
#389 = AXIS2_PLACEMENT_3D('',#390,#391,#392);
#390 = CARTESIAN_POINT('',(0.,0.,1.));
#391 = DIRECTION('',(0.,0.,1.));
#392 = DIRECTION('',(1.,0.,-0.));
#393 = PCURVE('',#71,#394);
#394 = DEFINITIONAL_REPRESENTATION('',(#395),#399);
#395 = CIRCLE('',#396,4.5);
#396 = AXIS2_PLACEMENT_2D('',#397,#398);
#397 = CARTESIAN_POINT('',(-0.22035906508,1.971901210578E-16));
#398 = DIRECTION('',(1.,0.));
#399 = ( GEOMETRIC_REPRESENTATION_CONTEXT(2) 
PARAMETRIC_REPRESENTATION_CONTEXT() REPRESENTATION_CONTEXT('2D SPACE',''
  ) );
#400 = PCURVE('',#401,#406);
#401 = SPHERICAL_SURFACE('',#402,13.05625);
#402 = AXIS2_PLACEMENT_3D('',#403,#404,#405);
#403 = CARTESIAN_POINT('',(0.,0.,-11.25625));
#404 = DIRECTION('',(0.,0.,1.));
#405 = DIRECTION('',(1.,0.,-0.));
#406 = DEFINITIONAL_REPRESENTATION('',(#407),#411);
#407 = LINE('',#408,#409);
#408 = CARTESIAN_POINT('',(0.,1.21891707589));
#409 = VECTOR('',#410,1.);
#410 = DIRECTION('',(1.,0.));
#411 = ( GEOMETRIC_REPRESENTATION_CONTEXT(2) 
PARAMETRIC_REPRESENTATION_CONTEXT() REPRESENTATION_CONTEXT('2D SPACE',''
  ) );
#412 = ORIENTED_EDGE('',*,*,#413,.F.);
#413 = EDGE_CURVE('',#84,#385,#414,.T.);
#414 = SURFACE_CURVE('',#415,(#420,#427),.PCURVE_S1.);
#415 = CIRCLE('',#416,4.5);
#416 = AXIS2_PLACEMENT_3D('',#417,#418,#419);
#417 = CARTESIAN_POINT('',(0.,0.,1.));
#418 = DIRECTION('',(0.,0.,1.));
#419 = DIRECTION('',(1.,0.,-0.));
#420 = PCURVE('',#71,#421);
#421 = DEFINITIONAL_REPRESENTATION('',(#422),#426);
#422 = CIRCLE('',#423,4.5);
#423 = AXIS2_PLACEMENT_2D('',#424,#425);
#424 = CARTESIAN_POINT('',(-0.22035906508,1.971901210578E-16));
#425 = DIRECTION('',(1.,0.));
#426 = ( GEOMETRIC_REPRESENTATION_CONTEXT(2) 
PARAMETRIC_REPRESENTATION_CONTEXT() REPRESENTATION_CONTEXT('2D SPACE',''
  ) );
#427 = PCURVE('',#401,#428);
#428 = DEFINITIONAL_REPRESENTATION('',(#429),#433);
#429 = LINE('',#430,#431);
#430 = CARTESIAN_POINT('',(0.,1.21891707589));
#431 = VECTOR('',#432,1.);
#432 = DIRECTION('',(1.,0.));
#433 = ( GEOMETRIC_REPRESENTATION_CONTEXT(2) 
PARAMETRIC_REPRESENTATION_CONTEXT() REPRESENTATION_CONTEXT('2D SPACE',''
  ) );
#434 = ADVANCED_FACE('',(#435),#100,.T.);
#435 = FACE_BOUND('',#436,.T.);
#436 = EDGE_LOOP('',(#437,#459));
#437 = ORIENTED_EDGE('',*,*,#438,.F.);
#438 = EDGE_CURVE('',#55,#84,#439,.T.);
#439 = SURFACE_CURVE('',#440,(#445,#452),.PCURVE_S1.);
#440 = CIRCLE('',#441,4.5);
#441 = AXIS2_PLACEMENT_3D('',#442,#443,#444);
#442 = CARTESIAN_POINT('',(0.,0.,1.));
#443 = DIRECTION('',(0.,0.,1.));
#444 = DIRECTION('',(1.,0.,-0.));
#445 = PCURVE('',#100,#446);
#446 = DEFINITIONAL_REPRESENTATION('',(#447),#451);
#447 = CIRCLE('',#448,4.5);
#448 = AXIS2_PLACEMENT_2D('',#449,#450);
#449 = CARTESIAN_POINT('',(-0.22035906508,1.971901210578E-16));
#450 = DIRECTION('',(1.,0.));
#451 = ( GEOMETRIC_REPRESENTATION_CONTEXT(2) 
PARAMETRIC_REPRESENTATION_CONTEXT() REPRESENTATION_CONTEXT('2D SPACE',''
  ) );
#452 = PCURVE('',#401,#453);
#453 = DEFINITIONAL_REPRESENTATION('',(#454),#458);
#454 = LINE('',#455,#456);
#455 = CARTESIAN_POINT('',(0.,1.21891707589));
#456 = VECTOR('',#457,1.);
#457 = DIRECTION('',(1.,0.));
#458 = ( GEOMETRIC_REPRESENTATION_CONTEXT(2) 
PARAMETRIC_REPRESENTATION_CONTEXT() REPRESENTATION_CONTEXT('2D SPACE',''
  ) );
#459 = ORIENTED_EDGE('',*,*,#83,.T.);
#460 = ADVANCED_FACE('',(#461,#495),#342,.T.);
#461 = FACE_BOUND('',#462,.T.);
#462 = EDGE_LOOP('',(#463));
#463 = ORIENTED_EDGE('',*,*,#464,.T.);
#464 = EDGE_CURVE('',#465,#465,#467,.T.);
#465 = VERTEX_POINT('',#466);
#466 = CARTESIAN_POINT('',(5.7,0.,0.));
#467 = SURFACE_CURVE('',#468,(#473,#480),.PCURVE_S1.);
#468 = ELLIPSE('',#469,5.7,4.2);
#469 = AXIS2_PLACEMENT_3D('',#470,#471,#472);
#470 = CARTESIAN_POINT('',(0.,0.,0.));
#471 = DIRECTION('',(0.,0.,1.));
#472 = DIRECTION('',(1.,0.,-0.));
#473 = PCURVE('',#342,#474);
#474 = DEFINITIONAL_REPRESENTATION('',(#475),#479);
#475 = ELLIPSE('',#476,5.7,4.2);
#476 = AXIS2_PLACEMENT_2D('',#477,#478);
#477 = CARTESIAN_POINT('',(-0.222301844278,-3.647560522583E-16));
#478 = DIRECTION('',(1.,0.));
#479 = ( GEOMETRIC_REPRESENTATION_CONTEXT(2) 
PARAMETRIC_REPRESENTATION_CONTEXT() REPRESENTATION_CONTEXT('2D SPACE',''
  ) );
#480 = PCURVE('',#481,#489);
#481 = SURFACE_OF_LINEAR_EXTRUSION('',#482,#487);
#482 = ELLIPSE('',#483,5.7,4.2);
#483 = AXIS2_PLACEMENT_3D('',#484,#485,#486);
#484 = CARTESIAN_POINT('',(0.,0.,-0.6));
#485 = DIRECTION('',(0.,0.,1.));
#486 = DIRECTION('',(1.,0.,-0.));
#487 = VECTOR('',#488,1.);
#488 = DIRECTION('',(-0.,-0.,-1.));
#489 = DEFINITIONAL_REPRESENTATION('',(#490),#494);
#490 = LINE('',#491,#492);
#491 = CARTESIAN_POINT('',(0.,-0.6));
#492 = VECTOR('',#493,1.);
#493 = DIRECTION('',(1.,0.));
#494 = ( GEOMETRIC_REPRESENTATION_CONTEXT(2) 
PARAMETRIC_REPRESENTATION_CONTEXT() REPRESENTATION_CONTEXT('2D SPACE',''
  ) );
#495 = FACE_BOUND('',#496,.T.);
#496 = EDGE_LOOP('',(#497));
#497 = ORIENTED_EDGE('',*,*,#305,.F.);
#498 = ADVANCED_FACE('',(#499),#401,.T.);
#499 = FACE_BOUND('',#500,.T.);
#500 = EDGE_LOOP('',(#501,#502,#526,#527,#528));
#501 = ORIENTED_EDGE('',*,*,#413,.T.);
#502 = ORIENTED_EDGE('',*,*,#503,.T.);
#503 = EDGE_CURVE('',#385,#504,#506,.T.);
#504 = VERTEX_POINT('',#505);
#505 = CARTESIAN_POINT('',(7.994647385684E-16,-1.958123866238E-31,1.8));
#506 = SEAM_CURVE('',#507,(#512,#519),.PCURVE_S1.);
#507 = CIRCLE('',#508,13.05625);
#508 = AXIS2_PLACEMENT_3D('',#509,#510,#511);
#509 = CARTESIAN_POINT('',(0.,0.,-11.25625));
#510 = DIRECTION('',(-2.449293598295E-16,-1.,0.));
#511 = DIRECTION('',(1.,-2.449293598295E-16,0.));
#512 = PCURVE('',#401,#513);
#513 = DEFINITIONAL_REPRESENTATION('',(#514),#518);
#514 = LINE('',#515,#516);
#515 = CARTESIAN_POINT('',(0.,-6.28318530718));
#516 = VECTOR('',#517,1.);
#517 = DIRECTION('',(0.,1.));
#518 = ( GEOMETRIC_REPRESENTATION_CONTEXT(2) 
PARAMETRIC_REPRESENTATION_CONTEXT() REPRESENTATION_CONTEXT('2D SPACE',''
  ) );
#519 = PCURVE('',#401,#520);
#520 = DEFINITIONAL_REPRESENTATION('',(#521),#525);
#521 = LINE('',#522,#523);
#522 = CARTESIAN_POINT('',(6.28318530718,-6.28318530718));
#523 = VECTOR('',#524,1.);
#524 = DIRECTION('',(0.,1.));
#525 = ( GEOMETRIC_REPRESENTATION_CONTEXT(2) 
PARAMETRIC_REPRESENTATION_CONTEXT() REPRESENTATION_CONTEXT('2D SPACE',''
  ) );
#526 = ORIENTED_EDGE('',*,*,#503,.F.);
#527 = ORIENTED_EDGE('',*,*,#384,.T.);
#528 = ORIENTED_EDGE('',*,*,#438,.T.);
#529 = ADVANCED_FACE('',(#530),#481,.F.);
#530 = FACE_BOUND('',#531,.F.);
#531 = EDGE_LOOP('',(#532,#555,#556,#557));
#532 = ORIENTED_EDGE('',*,*,#533,.T.);
#533 = EDGE_CURVE('',#534,#465,#536,.T.);
#534 = VERTEX_POINT('',#535);
#535 = CARTESIAN_POINT('',(5.7,0.,-0.6));
#536 = SEAM_CURVE('',#537,(#541,#548),.PCURVE_S1.);
#537 = LINE('',#538,#539);
#538 = CARTESIAN_POINT('',(5.7,0.,-0.6));
#539 = VECTOR('',#540,1.);
#540 = DIRECTION('',(0.,0.,1.));
#541 = PCURVE('',#481,#542);
#542 = DEFINITIONAL_REPRESENTATION('',(#543),#547);
#543 = LINE('',#544,#545);
#544 = CARTESIAN_POINT('',(0.,0.));
#545 = VECTOR('',#546,1.);
#546 = DIRECTION('',(0.,-1.));
#547 = ( GEOMETRIC_REPRESENTATION_CONTEXT(2) 
PARAMETRIC_REPRESENTATION_CONTEXT() REPRESENTATION_CONTEXT('2D SPACE',''
  ) );
#548 = PCURVE('',#481,#549);
#549 = DEFINITIONAL_REPRESENTATION('',(#550),#554);
#550 = LINE('',#551,#552);
#551 = CARTESIAN_POINT('',(6.28318530718,0.));
#552 = VECTOR('',#553,1.);
#553 = DIRECTION('',(0.,-1.));
#554 = ( GEOMETRIC_REPRESENTATION_CONTEXT(2) 
PARAMETRIC_REPRESENTATION_CONTEXT() REPRESENTATION_CONTEXT('2D SPACE',''
  ) );
#555 = ORIENTED_EDGE('',*,*,#464,.T.);
#556 = ORIENTED_EDGE('',*,*,#533,.F.);
#557 = ORIENTED_EDGE('',*,*,#558,.F.);
#558 = EDGE_CURVE('',#534,#534,#559,.T.);
#559 = SURFACE_CURVE('',#560,(#565,#572),.PCURVE_S1.);
#560 = ELLIPSE('',#561,5.7,4.2);
#561 = AXIS2_PLACEMENT_3D('',#562,#563,#564);
#562 = CARTESIAN_POINT('',(0.,0.,-0.6));
#563 = DIRECTION('',(0.,0.,1.));
#564 = DIRECTION('',(1.,0.,-0.));
#565 = PCURVE('',#481,#566);
#566 = DEFINITIONAL_REPRESENTATION('',(#567),#571);
#567 = LINE('',#568,#569);
#568 = CARTESIAN_POINT('',(0.,0.));
#569 = VECTOR('',#570,1.);
#570 = DIRECTION('',(1.,0.));
#571 = ( GEOMETRIC_REPRESENTATION_CONTEXT(2) 
PARAMETRIC_REPRESENTATION_CONTEXT() REPRESENTATION_CONTEXT('2D SPACE',''
  ) );
#572 = PCURVE('',#573,#578);
#573 = PLANE('',#574);
#574 = AXIS2_PLACEMENT_3D('',#575,#576,#577);
#575 = CARTESIAN_POINT('',(0.222301844278,3.647560522583E-16,-0.6));
#576 = DIRECTION('',(0.,0.,1.));
#577 = DIRECTION('',(1.,0.,-0.));
#578 = DEFINITIONAL_REPRESENTATION('',(#579),#583);
#579 = ELLIPSE('',#580,5.7,4.2);
#580 = AXIS2_PLACEMENT_2D('',#581,#582);
#581 = CARTESIAN_POINT('',(-0.222301844278,-3.647560522583E-16));
#582 = DIRECTION('',(1.,0.));
#583 = ( GEOMETRIC_REPRESENTATION_CONTEXT(2) 
PARAMETRIC_REPRESENTATION_CONTEXT() REPRESENTATION_CONTEXT('2D SPACE',''
  ) );
#584 = ADVANCED_FACE('',(#585,#588),#573,.F.);
#585 = FACE_BOUND('',#586,.F.);
#586 = EDGE_LOOP('',(#587));
#587 = ORIENTED_EDGE('',*,*,#558,.T.);
#588 = FACE_BOUND('',#589,.F.);
#589 = EDGE_LOOP('',(#590));
#590 = ORIENTED_EDGE('',*,*,#591,.F.);
#591 = EDGE_CURVE('',#592,#592,#594,.T.);
#592 = VERTEX_POINT('',#593);
#593 = CARTESIAN_POINT('',(4.7,0.,-0.6));
#594 = SURFACE_CURVE('',#595,(#600,#607),.PCURVE_S1.);
#595 = ELLIPSE('',#596,4.7,3.2);
#596 = AXIS2_PLACEMENT_3D('',#597,#598,#599);
#597 = CARTESIAN_POINT('',(0.,0.,-0.6));
#598 = DIRECTION('',(0.,0.,1.));
#599 = DIRECTION('',(1.,0.,-0.));
#600 = PCURVE('',#573,#601);
#601 = DEFINITIONAL_REPRESENTATION('',(#602),#606);
#602 = ELLIPSE('',#603,4.7,3.2);
#603 = AXIS2_PLACEMENT_2D('',#604,#605);
#604 = CARTESIAN_POINT('',(-0.222301844278,-3.647560522583E-16));
#605 = DIRECTION('',(1.,0.));
#606 = ( GEOMETRIC_REPRESENTATION_CONTEXT(2) 
PARAMETRIC_REPRESENTATION_CONTEXT() REPRESENTATION_CONTEXT('2D SPACE',''
  ) );
#607 = PCURVE('',#608,#616);
#608 = SURFACE_OF_LINEAR_EXTRUSION('',#609,#614);
#609 = ELLIPSE('',#610,4.7,3.2);
#610 = AXIS2_PLACEMENT_3D('',#611,#612,#613);
#611 = CARTESIAN_POINT('',(0.,0.,-0.6));
#612 = DIRECTION('',(0.,0.,1.));
#613 = DIRECTION('',(1.,0.,-0.));
#614 = VECTOR('',#615,1.);
#615 = DIRECTION('',(-0.,-0.,-1.));
#616 = DEFINITIONAL_REPRESENTATION('',(#617),#621);
#617 = LINE('',#618,#619);
#618 = CARTESIAN_POINT('',(0.,0.));
#619 = VECTOR('',#620,1.);
#620 = DIRECTION('',(1.,0.));
#621 = ( GEOMETRIC_REPRESENTATION_CONTEXT(2) 
PARAMETRIC_REPRESENTATION_CONTEXT() REPRESENTATION_CONTEXT('2D SPACE',''
  ) );
#622 = ADVANCED_FACE('',(#623),#608,.T.);
#623 = FACE_BOUND('',#624,.T.);
#624 = EDGE_LOOP('',(#625,#648,#675,#676));
#625 = ORIENTED_EDGE('',*,*,#626,.T.);
#626 = EDGE_CURVE('',#592,#627,#629,.T.);
#627 = VERTEX_POINT('',#628);
#628 = CARTESIAN_POINT('',(4.7,0.,0.));
#629 = SEAM_CURVE('',#630,(#634,#641),.PCURVE_S1.);
#630 = LINE('',#631,#632);
#631 = CARTESIAN_POINT('',(4.7,0.,-0.6));
#632 = VECTOR('',#633,1.);
#633 = DIRECTION('',(0.,0.,1.));
#634 = PCURVE('',#608,#635);
#635 = DEFINITIONAL_REPRESENTATION('',(#636),#640);
#636 = LINE('',#637,#638);
#637 = CARTESIAN_POINT('',(0.,0.));
#638 = VECTOR('',#639,1.);
#639 = DIRECTION('',(0.,-1.));
#640 = ( GEOMETRIC_REPRESENTATION_CONTEXT(2) 
PARAMETRIC_REPRESENTATION_CONTEXT() REPRESENTATION_CONTEXT('2D SPACE',''
  ) );
#641 = PCURVE('',#608,#642);
#642 = DEFINITIONAL_REPRESENTATION('',(#643),#647);
#643 = LINE('',#644,#645);
#644 = CARTESIAN_POINT('',(6.28318530718,0.));
#645 = VECTOR('',#646,1.);
#646 = DIRECTION('',(0.,-1.));
#647 = ( GEOMETRIC_REPRESENTATION_CONTEXT(2) 
PARAMETRIC_REPRESENTATION_CONTEXT() REPRESENTATION_CONTEXT('2D SPACE',''
  ) );
#648 = ORIENTED_EDGE('',*,*,#649,.T.);
#649 = EDGE_CURVE('',#627,#627,#650,.T.);
#650 = SURFACE_CURVE('',#651,(#656,#663),.PCURVE_S1.);
#651 = ELLIPSE('',#652,4.7,3.2);
#652 = AXIS2_PLACEMENT_3D('',#653,#654,#655);
#653 = CARTESIAN_POINT('',(0.,0.,0.));
#654 = DIRECTION('',(0.,0.,1.));
#655 = DIRECTION('',(1.,0.,-0.));
#656 = PCURVE('',#608,#657);
#657 = DEFINITIONAL_REPRESENTATION('',(#658),#662);
#658 = LINE('',#659,#660);
#659 = CARTESIAN_POINT('',(0.,-0.6));
#660 = VECTOR('',#661,1.);
#661 = DIRECTION('',(1.,0.));
#662 = ( GEOMETRIC_REPRESENTATION_CONTEXT(2) 
PARAMETRIC_REPRESENTATION_CONTEXT() REPRESENTATION_CONTEXT('2D SPACE',''
  ) );
#663 = PCURVE('',#664,#669);
#664 = PLANE('',#665);
#665 = AXIS2_PLACEMENT_3D('',#666,#667,#668);
#666 = CARTESIAN_POINT('',(0.22035906508,-1.971901210578E-16,0.));
#667 = DIRECTION('',(0.,0.,1.));
#668 = DIRECTION('',(1.,0.,-0.));
#669 = DEFINITIONAL_REPRESENTATION('',(#670),#674);
#670 = ELLIPSE('',#671,4.7,3.2);
#671 = AXIS2_PLACEMENT_2D('',#672,#673);
#672 = CARTESIAN_POINT('',(-0.22035906508,1.971901210578E-16));
#673 = DIRECTION('',(1.,0.));
#674 = ( GEOMETRIC_REPRESENTATION_CONTEXT(2) 
PARAMETRIC_REPRESENTATION_CONTEXT() REPRESENTATION_CONTEXT('2D SPACE',''
  ) );
#675 = ORIENTED_EDGE('',*,*,#626,.F.);
#676 = ORIENTED_EDGE('',*,*,#591,.F.);
#677 = ADVANCED_FACE('',(#678,#681),#664,.F.);
#678 = FACE_BOUND('',#679,.F.);
#679 = EDGE_LOOP('',(#680));
#680 = ORIENTED_EDGE('',*,*,#649,.T.);
#681 = FACE_BOUND('',#682,.F.);
#682 = EDGE_LOOP('',(#683));
#683 = ORIENTED_EDGE('',*,*,#684,.F.);
#684 = EDGE_CURVE('',#685,#685,#687,.T.);
#685 = VERTEX_POINT('',#686);
#686 = CARTESIAN_POINT('',(1.6,-3.918869757272E-16,0.));
#687 = SURFACE_CURVE('',#688,(#693,#700),.PCURVE_S1.);
#688 = CIRCLE('',#689,1.6);
#689 = AXIS2_PLACEMENT_3D('',#690,#691,#692);
#690 = CARTESIAN_POINT('',(0.,0.,0.));
#691 = DIRECTION('',(0.,0.,1.));
#692 = DIRECTION('',(1.,0.,-0.));
#693 = PCURVE('',#664,#694);
#694 = DEFINITIONAL_REPRESENTATION('',(#695),#699);
#695 = CIRCLE('',#696,1.6);
#696 = AXIS2_PLACEMENT_2D('',#697,#698);
#697 = CARTESIAN_POINT('',(-0.22035906508,1.971901210578E-16));
#698 = DIRECTION('',(1.,0.));
#699 = ( GEOMETRIC_REPRESENTATION_CONTEXT(2) 
PARAMETRIC_REPRESENTATION_CONTEXT() REPRESENTATION_CONTEXT('2D SPACE',''
  ) );
#700 = PCURVE('',#701,#706);
#701 = CYLINDRICAL_SURFACE('',#702,1.6);
#702 = AXIS2_PLACEMENT_3D('',#703,#704,#705);
#703 = CARTESIAN_POINT('',(0.,0.,-0.6));
#704 = DIRECTION('',(0.,0.,1.));
#705 = DIRECTION('',(1.,0.,-0.));
#706 = DEFINITIONAL_REPRESENTATION('',(#707),#711);
#707 = LINE('',#708,#709);
#708 = CARTESIAN_POINT('',(0.,0.6));
#709 = VECTOR('',#710,1.);
#710 = DIRECTION('',(1.,0.));
#711 = ( GEOMETRIC_REPRESENTATION_CONTEXT(2) 
PARAMETRIC_REPRESENTATION_CONTEXT() REPRESENTATION_CONTEXT('2D SPACE',''
  ) );
#712 = ADVANCED_FACE('',(#713),#701,.T.);
#713 = FACE_BOUND('',#714,.T.);
#714 = EDGE_LOOP('',(#715,#716,#739,#766));
#715 = ORIENTED_EDGE('',*,*,#684,.F.);
#716 = ORIENTED_EDGE('',*,*,#717,.F.);
#717 = EDGE_CURVE('',#718,#685,#720,.T.);
#718 = VERTEX_POINT('',#719);
#719 = CARTESIAN_POINT('',(1.6,-3.918869757272E-16,-0.6));
#720 = SEAM_CURVE('',#721,(#725,#732),.PCURVE_S1.);
#721 = LINE('',#722,#723);
#722 = CARTESIAN_POINT('',(1.6,-3.918869757272E-16,-0.6));
#723 = VECTOR('',#724,1.);
#724 = DIRECTION('',(0.,0.,1.));
#725 = PCURVE('',#701,#726);
#726 = DEFINITIONAL_REPRESENTATION('',(#727),#731);
#727 = LINE('',#728,#729);
#728 = CARTESIAN_POINT('',(6.28318530718,-0.));
#729 = VECTOR('',#730,1.);
#730 = DIRECTION('',(0.,1.));
#731 = ( GEOMETRIC_REPRESENTATION_CONTEXT(2) 
PARAMETRIC_REPRESENTATION_CONTEXT() REPRESENTATION_CONTEXT('2D SPACE',''
  ) );
#732 = PCURVE('',#701,#733);
#733 = DEFINITIONAL_REPRESENTATION('',(#734),#738);
#734 = LINE('',#735,#736);
#735 = CARTESIAN_POINT('',(0.,-0.));
#736 = VECTOR('',#737,1.);
#737 = DIRECTION('',(0.,1.));
#738 = ( GEOMETRIC_REPRESENTATION_CONTEXT(2) 
PARAMETRIC_REPRESENTATION_CONTEXT() REPRESENTATION_CONTEXT('2D SPACE',''
  ) );
#739 = ORIENTED_EDGE('',*,*,#740,.T.);
#740 = EDGE_CURVE('',#718,#718,#741,.T.);
#741 = SURFACE_CURVE('',#742,(#747,#754),.PCURVE_S1.);
#742 = CIRCLE('',#743,1.6);
#743 = AXIS2_PLACEMENT_3D('',#744,#745,#746);
#744 = CARTESIAN_POINT('',(0.,0.,-0.6));
#745 = DIRECTION('',(0.,0.,1.));
#746 = DIRECTION('',(1.,0.,-0.));
#747 = PCURVE('',#701,#748);
#748 = DEFINITIONAL_REPRESENTATION('',(#749),#753);
#749 = LINE('',#750,#751);
#750 = CARTESIAN_POINT('',(0.,0.));
#751 = VECTOR('',#752,1.);
#752 = DIRECTION('',(1.,0.));
#753 = ( GEOMETRIC_REPRESENTATION_CONTEXT(2) 
PARAMETRIC_REPRESENTATION_CONTEXT() REPRESENTATION_CONTEXT('2D SPACE',''
  ) );
#754 = PCURVE('',#755,#760);
#755 = PLANE('',#756);
#756 = AXIS2_PLACEMENT_3D('',#757,#758,#759);
#757 = CARTESIAN_POINT('',(0.,0.,-0.6));
#758 = DIRECTION('',(0.,0.,1.));
#759 = DIRECTION('',(1.,0.,-0.));
#760 = DEFINITIONAL_REPRESENTATION('',(#761),#765);
#761 = CIRCLE('',#762,1.6);
#762 = AXIS2_PLACEMENT_2D('',#763,#764);
#763 = CARTESIAN_POINT('',(0.,0.));
#764 = DIRECTION('',(1.,0.));
#765 = ( GEOMETRIC_REPRESENTATION_CONTEXT(2) 
PARAMETRIC_REPRESENTATION_CONTEXT() REPRESENTATION_CONTEXT('2D SPACE',''
  ) );
#766 = ORIENTED_EDGE('',*,*,#717,.T.);
#767 = ADVANCED_FACE('',(#768),#755,.F.);
#768 = FACE_BOUND('',#769,.T.);
#769 = EDGE_LOOP('',(#770));
#770 = ORIENTED_EDGE('',*,*,#740,.F.);
#771 = ( GEOMETRIC_REPRESENTATION_CONTEXT(3) 
GLOBAL_UNCERTAINTY_ASSIGNED_CONTEXT((#775)) GLOBAL_UNIT_ASSIGNED_CONTEXT
((#772,#773,#774)) REPRESENTATION_CONTEXT('Context #1',
  '3D Context with UNIT and UNCERTAINTY') );
#772 = ( LENGTH_UNIT() NAMED_UNIT(*) SI_UNIT(.MILLI.,.METRE.) );
#773 = ( NAMED_UNIT(*) PLANE_ANGLE_UNIT() SI_UNIT($,.RADIAN.) );
#774 = ( NAMED_UNIT(*) SI_UNIT($,.STERADIAN.) SOLID_ANGLE_UNIT() );
#775 = UNCERTAINTY_MEASURE_WITH_UNIT(LENGTH_MEASURE(5.E-06),#772,
  'distance_accuracy_value','confusion accuracy');
#776 = PRODUCT_RELATED_PRODUCT_CATEGORY('part',$,(#7));
ENDSEC;
END-ISO-10303-21;
